<svg xmlns="http://www.w3.org/2000/svg" version="1.1" xmlns:xlink="http://www.w3.org/1999/xlink" xmlns:svgjs="http://svgjs.dev/svgjs" width="1000" height="300" viewBox="0 0 1000 300"><g transform="matrix(1,0,0,1,-0.6060605999067548,-0.18718234071488382)"><svg viewBox="0 0 396 119" data-background-color="#ffffff" preserveAspectRatio="xMidYMid meet" height="300" width="1000" xmlns="http://www.w3.org/2000/svg" xmlns:xlink="http://www.w3.org/1999/xlink"><g id="tight-bounds" transform="matrix(1,0,0,1,0.23999999756307488,0.07424899515024208)"><svg viewBox="0 0 395.52 118.85150200969949" height="118.85150200969949" width="395.52"><g><svg viewBox="0 0 395.52 118.85150200969949" height="118.85150200969949" width="395.52"><g><svg viewBox="0 0 676.8240115863482 203.38175155053534" height="118.85150200969949" width="395.52"><g><rect width="6.03684511595099" height="203.38175155053534" x="259.463907004557" y="0" fill="#6b7280" opacity="1" stroke-width="0" stroke="transparent" fill-opacity="1" class="rect-o-0" data-fill-palette-color="primary" rx="1%" id="o-0" data-palette-color="#6b7280"></rect></g><g transform="matrix(1,0,0,1,281.3040115863483,0.5059247551008212)"><svg viewBox="0 0 395.52 202.3699020403337" height="202.3699020403337" width="395.52"><g id="textblocktransform"><svg viewBox="0 0 395.52 202.3699020403337" height="202.3699020403337" width="395.52" id="textblock"><g><svg viewBox="0 0 395.52 145.19685339690105" height="145.19685339690105" width="395.52"><g transform="matrix(1,0,0,1,0,0)"><svg width="395.52" viewBox="-0.05000000447034836 -34.900001525878906 212 74.00000762939453" height="145.19685339690105" data-palette-color="#6b7280"><svg></svg><svg></svg><g class="wordmark-text-0" data-fill-palette-color="primary" id="text-0"><path xmlns="http://www.w3.org/2000/svg" d="M-0.05 0l10.95-34.3h6.25l10.95 34.3h-5.35l-2.25-7.35h-13.3l-2.25 7.35zM8.55-11.9h10.55l-4.3-14.05c-0.267-0.867-0.55-2.217-0.85-4.05v0h-0.2c-0.3 1.9-0.583 3.25-0.85 4.05v0zM36 0v-13.8l-10.95-20.5h5.45l8.2 15.65h0.2l8.05-15.65h4.95l-10.9 20.5v13.8zM55.5 0v-34.3h13.95c3.333 0 5.893 0.873 7.68 2.62 1.78 1.753 2.67 4.08 2.67 6.98v0c0 2.1-0.533 3.933-1.6 5.5-1.067 1.567-2.533 2.683-4.4 3.35v0l6.8 15.85h-5.55l-6.15-14.9h-8.4v14.9zM60.5-19.4h8.6c1.667 0 2.977-0.483 3.93-1.45 0.947-0.967 1.42-2.25 1.42-3.85v0c0-1.567-0.45-2.8-1.35-3.7-0.9-0.9-2.217-1.35-3.95-1.35v0h-8.65zM85.1 0v-34.3h21.35v4.55h-16.35v9.95h14.15v4.5h-14.15v10.75h16.65v4.55zM122.6 0.6c-3.4 0-6.183-0.86-8.35-2.58-2.167-1.713-3.25-4.32-3.25-7.82v0l0.05-1.05h5.2l-0.05 1c0 1.9 0.583 3.367 1.75 4.4 1.167 1.033 2.717 1.55 4.65 1.55v0c2.133 0 3.757-0.46 4.87-1.38 1.12-0.913 1.68-2.187 1.68-3.82v0c0-1.2-0.327-2.183-0.98-2.95-0.647-0.767-1.463-1.377-2.45-1.83-0.98-0.447-2.32-0.937-4.02-1.47v0c-2.133-0.7-3.867-1.383-5.2-2.05-1.333-0.667-2.467-1.66-3.4-2.98-0.933-1.313-1.4-3.037-1.4-5.17v0c0-3.033 1.04-5.35 3.12-6.95 2.087-1.6 4.73-2.4 7.93-2.4v0c3.2 0 5.817 0.817 7.85 2.45 2.033 1.633 3.05 4.083 3.05 7.35v0 0.6h-5.2v-0.65c0-1.633-0.523-2.917-1.57-3.85-1.053-0.933-2.413-1.4-4.08-1.4v0c-1.767 0-3.183 0.383-4.25 1.15-1.067 0.767-1.6 1.867-1.6 3.3v0c0 1.067 0.317 1.957 0.95 2.67 0.633 0.72 1.433 1.297 2.4 1.73 0.967 0.433 2.267 0.9 3.9 1.4v0c2.167 0.7 3.923 1.383 5.27 2.05 1.353 0.667 2.513 1.65 3.48 2.95 0.967 1.3 1.45 3 1.45 5.1v0c0 3.7-1.06 6.4-3.18 8.1-2.113 1.7-4.987 2.55-8.62 2.55z" fill="#6b7280" fill-rule="nonzero" stroke="none" stroke-width="1" stroke-linecap="butt" stroke-linejoin="miter" stroke-miterlimit="10" stroke-dasharray="" stroke-dashoffset="0" font-family="none" font-weight="none" font-size="none" text-anchor="none" style="mix-blend-mode: normal" data-fill-palette-color="primary" opacity="1"></path><path xmlns="http://www.w3.org/2000/svg" d="M15.2 24.75v-4.35h13.65v18.1h-3.25l-1-3.8c-2.067 2.933-5.05 4.4-8.95 4.4v0c-4.367 0-7.7-1.477-10-4.43-2.3-2.947-3.45-7.387-3.45-13.32v0c0-5.867 1.217-10.293 3.65-13.28 2.433-2.98 5.883-4.47 10.35-4.47v0c2.4 0 4.56 0.467 6.48 1.4 1.913 0.933 3.42 2.333 4.52 4.2 1.1 1.867 1.65 4.133 1.65 6.8v0h-5.15c0-2.6-0.683-4.567-2.05-5.9-1.367-1.333-3.2-2-5.5-2v0c-2.8 0-4.95 1.017-6.45 3.05-1.5 2.033-2.25 5.017-2.25 8.95v0 2.5c0 3.967 0.717 6.957 2.15 8.97 1.433 2.02 3.567 3.03 6.4 3.03v0c2.567 0 4.493-0.783 5.78-2.35 1.28-1.567 1.92-3.883 1.92-6.95v0-0.55zM35.25 38.5v-34.3h21.35v4.55h-16.35v9.95h14.15v4.5h-14.15v10.75h16.65v4.55zM72.75 39.1c-3.4 0-6.183-0.86-8.35-2.58-2.167-1.713-3.25-4.32-3.25-7.82v0l0.05-1.05h5.2l-0.05 1c0 1.9 0.583 3.367 1.75 4.4 1.167 1.033 2.717 1.55 4.65 1.55v0c2.133 0 3.76-0.46 4.88-1.38 1.113-0.913 1.67-2.187 1.67-3.82v0c0-1.2-0.323-2.183-0.97-2.95-0.653-0.767-1.47-1.377-2.45-1.83-0.987-0.447-2.33-0.937-4.03-1.47v0c-2.133-0.7-3.867-1.383-5.2-2.05-1.333-0.667-2.467-1.66-3.4-2.98-0.933-1.313-1.4-3.037-1.4-5.17v0c0-3.033 1.04-5.35 3.12-6.95 2.087-1.6 4.73-2.4 7.93-2.4v0c3.2 0 5.817 0.817 7.85 2.45 2.033 1.633 3.05 4.083 3.05 7.35v0 0.6h-5.2v-0.65c0-1.633-0.523-2.917-1.57-3.85-1.053-0.933-2.413-1.4-4.08-1.4v0c-1.767 0-3.183 0.383-4.25 1.15-1.067 0.767-1.6 1.867-1.6 3.3v0c0 1.067 0.317 1.957 0.95 2.67 0.633 0.72 1.433 1.297 2.4 1.73 0.967 0.433 2.267 0.9 3.9 1.4v0c2.167 0.7 3.927 1.383 5.28 2.05 1.347 0.667 2.503 1.65 3.47 2.95 0.967 1.3 1.45 3 1.45 5.1v0c0 3.7-1.057 6.4-3.17 8.1-2.12 1.7-4.997 2.55-8.63 2.55zM96.6 38.5v-29.75h-9.1v-4.55h23.2v4.55h-9.05v29.75zM126.9 39.1c-4.367 0-7.75-1.493-10.15-4.48-2.4-2.98-3.6-7.403-3.6-13.27v0c0-5.867 1.2-10.293 3.6-13.28 2.4-2.98 5.783-4.47 10.15-4.47v0c4.367 0 7.75 1.49 10.15 4.47 2.4 2.987 3.6 7.413 3.6 13.28v0c0 5.867-1.2 10.29-3.6 13.27-2.4 2.987-5.783 4.48-10.15 4.48zM126.9 34.6c2.7 0 4.79-1.027 6.27-3.08 1.487-2.047 2.23-5.02 2.23-8.92v0-2.5c0-3.9-0.743-6.877-2.23-8.93-1.48-2.047-3.57-3.07-6.27-3.07v0c-2.7 0-4.793 1.023-6.28 3.07-1.48 2.053-2.22 5.03-2.22 8.93v0 2.5c0 3.9 0.74 6.873 2.22 8.92 1.487 2.053 3.58 3.08 6.28 3.08zM146.2 38.5v-34.3h13.95c3.333 0 5.89 0.873 7.67 2.62 1.787 1.753 2.68 4.08 2.68 6.98v0c0 2.1-0.533 3.933-1.6 5.5-1.067 1.567-2.533 2.683-4.4 3.35v0l6.8 15.85h-5.55l-6.15-14.9h-8.4v14.9zM151.2 19.1h8.6c1.667 0 2.973-0.483 3.92-1.45 0.953-0.967 1.43-2.25 1.43-3.85v0c0-1.567-0.45-2.8-1.35-3.7-0.9-0.9-2.217-1.35-3.95-1.35v0h-8.65zM175.65 38.5v-34.3h5v34.3zM183.8 38.5l10.95-34.3h6.25l10.95 34.3h-5.35l-2.25-7.35h-13.3l-2.25 7.35zM192.4 26.6h10.55l-4.3-14.05c-0.267-0.867-0.55-2.217-0.85-4.05v0h-0.2c-0.3 1.9-0.583 3.25-0.85 4.05v0z" fill="#6b7280" fill-rule="nonzero" stroke="none" stroke-width="1" stroke-linecap="butt" stroke-linejoin="miter" stroke-miterlimit="10" stroke-dasharray="" stroke-dashoffset="0" font-family="none" font-weight="none" font-size="none" text-anchor="none" style="mix-blend-mode: normal" data-fill-palette-color="primary" opacity="1"></path></g></svg></g></svg></g><g transform="matrix(1,0,0,1,0,161.00011286274133)"><svg viewBox="0 0 210.64055088518217 41.36978917759237" height="41.36978917759237" width="210.64055088518217"><g transform="matrix(1,0,0,1,0,0)"><svg width="210.64055088518217" viewBox="4.150000095367432 -54.400001525878906 280.52001953125 55.10000228881836" height="41.36978917759237" data-palette-color="#000000"><path d="M31.1-36.25Q31.4-36.2 31.55-35.95L31.55-35.95Q31.15-35.45 31-34.43 30.85-33.4 30.85-33.25L30.85-33.25Q30.7-32.4 30.1-32.4L30.1-32.4Q27.9-32.4 21.4-32.8L21.4-32.8Q16-33.1 15.25-33.1L15.25-33.1Q14.25-33.1 13.98-32.9 13.7-32.7 13.5-32.05L13.5-32.05Q13-30.35 10.55-18.3L10.55-18.3Q13.95-18.1 16.7-18.1L16.7-18.1Q23.4-18.1 27.5-19.3L27.5-19.3 27.7-19.1Q27.55-18.8 27.3-17.75 27.05-16.7 27.05-16.15L27.05-16.15Q24.6-16.15 22.25-16.2L22.25-16.2 10.1-16.25Q7.25-1.9 7.25-0.85L7.25-0.85 7.3-0.15Q6.6 0.2 5.1 0.2L5.1 0.2Q4.6 0.2 4.38 0.08 4.15-0.05 4.15-0.55L4.15-0.55Q4.15-0.95 4.45-2.35L4.45-2.35 7.6-16.9Q9.05-23.35 9.93-27.53 10.8-31.7 10.8-32.4L10.8-32.4Q10.8-33.2 9.55-33.2L9.55-33.2 8-33.1 6.65-33.05Q6.05-33.05 6.05-33.35L6.05-33.35Q6.05-33.6 6.23-34.23 6.4-34.85 6.7-35.35L6.7-35.35Q12.55-35 20-35L20-35Q25.65-35 27.68-35.2 29.7-35.4 31.1-36.25L31.1-36.25ZM57.5-11.7Q58.25-11.5 58.3-10.8L58.3-10.8Q58.3-9.6 56.4-6.83 54.5-4.05 51.7-1.85 48.9 0.35 46.1 0.35L46.1 0.35Q44.2 0.35 43.12-0.78 42.05-1.9 42.05-3.8L42.05-3.8Q42.05-4.45 42.15-4.85L42.15-4.85Q41.05-3.05 39.27-1.48 37.5 0.1 35.8 0.1L35.8 0.1Q34.35 0.1 32.95-1.05 31.55-2.2 31.25-3.4L31.25-3.4Q31.2-5.65 31.87-8.55 32.55-11.45 34.95-19.8L34.95-19.8Q35.25-20.75 35.65-20.75L35.65-20.75Q36.05-20.75 36.7-20.35 37.35-19.95 37.35-19.55L37.35-19.55Q37.35-19.35 37.22-19 37.1-18.65 37.05-18.45L37.05-18.45Q33.85-7.65 33.7-4.15L33.7-4.15Q33.95-3.5 34.77-2.83 35.6-2.15 36.2-2.15L36.2-2.15Q36.85-2.15 38-2.93 39.15-3.7 40.45-5.48 41.75-7.25 42.85-10.1L42.85-10.1Q44.15-13.55 45.75-20.2L45.75-20.2Q45.85-20.75 46.3-20.75L46.3-20.75Q46.7-20.75 47.37-20.33 48.05-19.9 48.05-19.35L48.05-19.35Q48.05-18.9 47.6-17.55 47.15-16.2 47.05-15.85L47.05-15.85Q45.85-12.35 45.12-9.68 44.4-7 44.4-4.9L44.4-4.9Q44.4-1.65 46.65-1.65L46.65-1.65Q48.1-1.65 50-2.88 51.9-4.1 53.87-6.4 55.85-8.7 57.5-11.7L57.5-11.7ZM62.8 0.25Q60.2 0.25 58.55-0.98 56.9-2.2 56.15-3.68 55.4-5.15 55.4-5.7L55.4-5.7Q56.9-11.35 58-16.9L58-16.9Q58.2-17.9 59.27-18.78 60.35-19.65 61.77-20.2 63.2-20.75 64.3-20.75L64.3-20.75Q65.4-20.75 66.57-20.2 67.75-19.65 68.55-18.8 69.34-17.95 69.34-17L69.34-17Q69.34-15.6 68-14.55L68-14.55 67.75-14.6Q67.65-16.25 66.57-17.43 65.5-18.6 64.15-18.6L64.15-18.6Q63-18.6 61.65-17.82 60.3-17.05 60.1-16.05L60.1-16.05Q59.3-11.85 58.85-9.8L58.85-9.8 58.05-6.05Q58.05-5.4 58.62-4.42 59.2-3.45 60.35-2.73 61.5-2 63.2-2L63.2-2Q65-2 67.47-2.88 69.95-3.75 72.45-6.03 74.95-8.3 76.5-12.1L76.5-12.1Q77-12.1 77.15-11.75 77.3-11.4 77.3-10.8L77.3-10.8Q77.3-8.5 74.97-5.9 72.65-3.3 69.22-1.53 65.8 0.25 62.8 0.25L62.8 0.25ZM100.89-54.4Q105.19-54.4 107.69-52.03 110.19-49.65 110.19-45.35L110.19-45.35 109.84-44.75Q108.74-48.15 106.39-49.78 104.04-51.4 100.74-51.4L100.74-51.4Q93.79-51.4 88.94-43.58 84.09-35.75 80.54-21L80.54-21 79.24-15.35 78.59-12.45Q80.64-15.35 83.79-18.07 86.94-20.8 88.54-20.8L88.54-20.8Q88.94-20.8 89.72-20.05 90.49-19.3 90.49-18.95L90.49-18.95Q89.54-16.2 88.24-10.9 86.94-5.6 86.94-4.15L86.94-4.15Q86.94-2.75 87.39-2.13 87.84-1.5 89.24-1.5L89.24-1.5Q91.74-1.5 94.09-3.4 96.44-5.3 98.17-7.73 99.89-10.15 100.79-12L100.79-12Q101.14-11.9 101.34-11.65 101.54-11.4 101.59-10.9L101.59-10.9 101.59-10.75Q101.59-10.15 101.19-9.35L101.19-9.35Q98.89-5.15 95.29-2.27 91.69 0.6 88.29 0.6L88.29 0.6Q86.54 0.6 85.49-0.5 84.44-1.6 84.44-3.6L84.44-3.6Q84.44-5.55 85.07-8.4 85.69-11.25 86.74-15.1L86.74-15.1Q86.69-14.85 87.29-17.15L87.29-17.15Q87.24-17.35 87.04-17.5 86.84-17.65 86.69-17.65L86.69-17.65Q86.19-17.65 84.34-16 82.49-14.35 80.59-12.05 78.69-9.75 77.74-7.75L77.74-7.75Q77.24-5.75 76.74-2.75L76.74-2.75Q76.69-2.4 76.64-2 76.59-1.6 76.49-1.2L76.49-1.2Q76.34-0.3 76.22 0.03 76.09 0.35 75.79 0.35L75.79 0.35Q75.19 0.35 74.44 0.05 73.69-0.25 73.69-0.7L73.69-0.7Q73.69-1.35 73.99-2.6L73.99-2.6 78.34-21.05Q81.99-36.65 87.64-45.53 93.29-54.4 100.89-54.4L100.89-54.4ZM101.34 0.65Q98.94 0.65 97.27-0.5 95.59-1.65 95.59-3.15L95.59-3.15Q95.59-3.95 96.04-4.45 96.49-4.95 97.04-5.05L97.04-5.05Q97.59-3.15 98.84-2.2 100.09-1.25 101.89-1.25L101.89-1.25Q104.14-1.25 105.49-2.53 106.84-3.8 106.84-5.5L106.84-5.5Q106.84-6.75 106.12-7.7 105.39-8.65 103.94-9.9L103.94-9.9Q102.34-11.3 101.57-12.33 100.79-13.35 100.79-14.8L100.79-14.8Q100.79-16.35 101.77-17.75 102.74-19.15 104.27-20 105.79-20.85 107.44-20.85L107.44-20.85Q108.89-20.85 110.12-20.23 111.34-19.6 111.34-18.55L111.34-18.55Q111.34-17.55 110.14-16.45L110.14-16.45Q109.49-17.6 108.54-18.23 107.59-18.85 106.54-18.85L106.54-18.85Q104.94-18.85 104.12-17.68 103.29-16.5 103.29-15.35L103.29-15.35Q103.29-14.4 103.94-13.65 104.59-12.9 105.99-11.75L105.99-11.75Q107.69-10.3 108.59-9.15 109.49-8 109.49-6.45L109.49-6.45Q109.49-4.8 108.42-3.15 107.34-1.5 105.47-0.43 103.59 0.65 101.34 0.65L101.34 0.65ZM171.09-35.8L171.09-35.6Q171.09-35 170.74-34.55L170.74-34.55Q169.89-34.9 168.59-34.9L168.59-34.9Q163.54-34.9 158.54-31.45 153.54-28 149.66-22.28 145.79-16.55 143.89-9.95L143.89-9.95Q143.19-7.6 142.96-5.75 142.74-3.9 142.64-1.4L142.64-1.4Q142.59-0.7 142.34-0.35 142.09 0 141.54 0L141.54 0Q139.49 0 138.84 0.08 138.19 0.15 137.09 0.7L137.09 0.7Q136.84 0.35 136.84 0.15L136.84 0.15Q138.89-2.4 140.39-7.63 141.89-12.85 141.89-17.95L141.89-17.95Q141.89-21.9 140.89-25.18 139.89-28.45 137.89-30.4 135.89-32.35 132.99-32.35L132.99-32.35Q130.79-32.35 129.21-31.2 127.64-30.05 126.29-27.9L126.29-27.9Q125.89-28.25 125.71-28.53 125.54-28.8 125.54-29.4L125.54-29.4Q125.54-30.7 126.51-32.13 127.49-33.55 129.29-34.5 131.09-35.45 133.44-35.45L133.44-35.45Q138.49-35.45 141.36-30.93 144.24-26.4 144.74-19.5L144.74-19.5Q144.79-18.95 144.79-17.9L144.79-17.9Q146.99-22.35 150.89-26.98 154.79-31.6 159.31-34.65 163.84-37.7 167.79-37.7L167.79-37.7Q169.39-37.7 170.19-37.2 170.99-36.7 171.09-35.8L171.09-35.8ZM191.93-11.55Q192.58-11.55 192.58-10.25L192.58-10.25Q192.58-7.95 190.56-5.4 188.53-2.85 185.66-1.13 182.78 0.6 180.38 0.6L180.38 0.6Q178.43 0.6 177.38-0.6 176.33-1.8 176.13-3.7L176.13-3.7Q174.88-1.9 172.98-0.75 171.08 0.4 169.58 0.4L169.58 0.4Q168.28 0.4 167.01-0.48 165.73-1.35 164.93-2.63 164.13-3.9 164.08-5.05L164.08-5.05 166.53-15.15Q166.83-16.35 168.06-17.73 169.28-19.1 171.03-20 172.78-20.9 174.58-20.9L174.58-20.9Q176.88-20.9 178.63-19.35L178.63-19.35Q179.08-20.55 179.31-20.85 179.53-21.15 179.98-21.2L179.98-21.2 182.43-21.45 182.58-21.35Q181.58-20.55 181.13-18.85L181.13-18.85Q179.58-13.05 179.01-10.3 178.43-7.55 178.43-5.45L178.43-5.45Q178.43-3.35 178.98-2.38 179.53-1.4 180.83-1.4L180.83-1.4Q182.43-1.4 184.66-2.7 186.88-4 188.88-6.33 190.88-8.65 191.93-11.55L191.93-11.55ZM169.78-1.95Q170.63-1.95 171.86-2.55 173.08-3.15 174.16-4.28 175.23-5.4 175.63-6.85L175.63-6.85 176.58-10.95Q176.78-11.95 177.28-14.18 177.78-16.4 178.08-17.6L178.08-17.6Q176.68-19 174.68-19L174.68-19Q173.13-19 171.88-18.18 170.63-17.35 169.83-16.18 169.03-15 168.83-14.1L168.83-14.1 166.83-5.2Q166.93-3.95 167.83-2.95 168.73-1.95 169.78-1.95L169.78-1.95ZM224.88-11.55Q224.93-10 223-7.15 221.08-4.3 218.28-2.1 215.48 0.1 212.78 0.1L212.78 0.1Q210.88 0.1 209.66-1.13 208.43-2.35 208.43-4.85L208.43-4.85Q208.43-6.9 209.11-9.47 209.78-12.05 210.93-15.6L210.93-15.6Q211.28-16.55 211.58-17.6L211.58-17.6Q211.58-17.75 211.38-17.88 211.18-18 210.98-18L210.98-18Q210.33-18 208.41-16.13 206.48-14.25 204.5-11.83 202.53-9.4 201.88-8.15L201.88-8.15Q201.38-6.6 200.23-1.65L200.23-1.65Q200.03-0.8 199.91-0.5 199.78-0.2 199.48-0.2L199.48-0.2Q199.03-0.2 198.46-0.75 197.88-1.3 197.88-1.85L197.88-1.85Q197.88-2.4 198.38-4.25L198.38-4.25Q200.48-11.95 201.78-17.6L201.78-17.6Q201.48-18 201.03-18L201.03-18Q200.28-18 198.48-16.15 196.68-14.3 194.73-11.48 192.78-8.65 191.53-5.9L191.53-5.9Q190.78-3.45 190.18-0.25L190.18-0.25Q189.68-0.25 188.88-0.6 188.08-0.95 188.08-1.3L188.08-1.3Q188.08-1.7 188.58-3.55L188.58-3.55 192.83-20.1Q192.93-20.55 193.08-20.75 193.23-20.95 193.53-20.95L193.53-20.95Q193.83-20.95 194.56-20.65 195.28-20.35 195.48-20.15L195.48-20.15 195.03-18.55Q194.88-17.95 194.36-16.07 193.83-14.2 193.38-12.2L193.38-12.2Q194.93-14.9 196.61-16.68 198.28-18.45 199.68-19.28 201.08-20.1 201.83-20.1L201.83-20.1Q202.38-20.1 203.23-19.5 204.08-18.9 204.08-18.5L204.08-18.5Q203.63-15.75 202.78-12.3L202.78-12.3Q204.83-15.1 207.68-17.88 210.53-20.65 212.03-20.65L212.03-20.65Q212.73-20.65 213.53-20.1 214.33-19.55 214.38-18.8L214.38-18.8Q212.78-13.85 211.91-10.65 211.03-7.45 211.03-4.9L211.03-4.9Q211.03-3.4 211.53-2.73 212.03-2.05 213.33-2.05L213.33-2.05Q216.38-2.05 219.23-5.38 222.08-8.7 223.58-13.2L223.58-13.2Q224.13-13.2 224.5-12.7 224.88-12.2 224.88-11.55L224.88-11.55ZM226.63 0.35Q224.88 0.35 223.5-0.83 222.13-2 222.13-4.3L222.13-4.3Q222.88-6.7 224.73-14.95L224.73-14.95Q225.63-19 225.83-19.8L225.83-19.8Q226.48-20.9 227.63-20.9L227.63-20.9Q228.38-20.9 228.38-20.4L228.38-20.4Q228.03-19.15 227.4-16.43 226.78-13.7 226.43-12.15L226.43-12.15Q225.08-5.95 224.58-4.2L224.58-4.2Q224.58-3.05 225.25-2.43 225.93-1.8 227.03-1.8L227.03-1.8Q229.53-1.8 232.05-3.58 234.58-5.35 236.5-7.7 238.43-10.05 239.38-11.75L239.38-11.75Q239.68-11.65 239.78-11.43 239.88-11.2 239.88-10.65L239.88-10.65Q239.88-9.9 239.38-9.1L239.38-9.1Q236.68-4.85 233.33-2.25 229.98 0.35 226.63 0.35L226.63 0.35ZM228.93-27.15Q228.23-27.15 227.83-27.63 227.43-28.1 227.43-28.85L227.43-28.85Q227.43-29.85 228.08-30.68 228.73-31.5 229.73-31.5L229.73-31.5Q230.53-31.5 230.9-31 231.28-30.5 231.28-29.8L231.28-29.8Q231.28-28.8 230.6-27.98 229.93-27.15 228.93-27.15L228.93-27.15ZM257.93-14Q258.43-14 258.73-13.53 259.03-13.05 259.03-12.35L259.03-12.35Q259.03-11.45 258.53-10.45L258.53-10.45Q257.13-7.5 254.53-5.03 251.93-2.55 248.9-1.1 245.88 0.35 243.28 0.35L243.28 0.35Q237.98 0.35 237.98-5.8L237.98-5.8Q237.98-10.1 240.33-19.63 242.68-29.15 247.13-44.9L247.13-44.9Q248.08-48.15 249.2-49.7 250.33-51.25 251.78-51.25L251.78-51.25Q252.83-51.25 253.8-50.53 254.78-49.8 255.43-48.3 256.08-46.8 256.08-44.6L256.08-44.6Q256.08-41.05 254.4-35.6 252.73-30.15 249.38-24.1 246.03-18.05 241.33-12.9L241.33-12.9Q240.48-8.5 240.48-6.35L240.48-6.35Q240.48-3.95 241.45-2.93 242.43-1.9 244.18-1.9L244.18-1.9Q246.63-1.9 249.4-3.55 252.18-5.2 254.48-8 256.78-10.8 257.93-14L257.93-14ZM248.43-41.75Q244.23-26.65 242.08-16.7L242.08-16.7Q245.78-21.35 248.45-26.85 251.13-32.35 252.45-37.15 253.78-41.95 253.78-44.7L253.78-44.7Q253.78-46.25 253.33-47.38 252.88-48.5 251.83-48.5L251.83-48.5Q251.23-48.5 250.4-47.25 249.58-46 248.43-41.75L248.43-41.75ZM284.02-11.55Q284.67-11.55 284.67-10.25L284.67-10.25Q284.67-7.95 282.65-5.4 280.62-2.85 277.75-1.13 274.87 0.6 272.47 0.6L272.47 0.6Q270.52 0.6 269.47-0.6 268.42-1.8 268.22-3.7L268.22-3.7Q266.97-1.9 265.07-0.75 263.17 0.4 261.67 0.4L261.67 0.4Q260.37 0.4 259.1-0.48 257.82-1.35 257.02-2.63 256.22-3.9 256.17-5.05L256.17-5.05 258.62-15.15Q258.92-16.35 260.15-17.73 261.37-19.1 263.12-20 264.87-20.9 266.67-20.9L266.67-20.9Q268.97-20.9 270.72-19.35L270.72-19.35Q271.17-20.55 271.4-20.85 271.62-21.15 272.07-21.2L272.07-21.2 274.52-21.45 274.67-21.35Q273.67-20.55 273.22-18.85L273.22-18.85Q271.67-13.05 271.1-10.3 270.52-7.55 270.52-5.45L270.52-5.45Q270.52-3.35 271.07-2.38 271.62-1.4 272.92-1.4L272.92-1.4Q274.52-1.4 276.75-2.7 278.97-4 280.97-6.33 282.97-8.65 284.02-11.55L284.02-11.55ZM261.87-1.95Q262.72-1.95 263.95-2.55 265.17-3.15 266.25-4.28 267.32-5.4 267.72-6.85L267.72-6.85 268.67-10.95Q268.87-11.95 269.37-14.18 269.87-16.4 270.17-17.6L270.17-17.6Q268.77-19 266.77-19L266.77-19Q265.22-19 263.97-18.18 262.72-17.35 261.92-16.18 261.12-15 260.92-14.1L260.92-14.1 258.92-5.2Q259.02-3.95 259.92-2.95 260.82-1.95 261.87-1.95L261.87-1.95Z" opacity="1" transform="matrix(1,0,0,1,0,0)" fill="#000000" class="slogan-text-1" data-fill-palette-color="secondary" id="text-1"></path></svg></g></svg></g></svg></g></svg></g><g transform="matrix(1,0,0,1,0,0.505924755100807)"><svg viewBox="0 0 243.66064753871666 202.36990204033373" height="202.36990204033373" width="243.66064753871666"><g><svg xmlns="http://www.w3.org/2000/svg" xmlns:xlink="http://www.w3.org/1999/xlink" version="1.1" x="0" y="0" viewBox="19 25.5000057220459 214.80003356933594 178.40000915527344" enable-background="new 0 0 246 244" xml:space="preserve" height="202.36990204033373" width="243.66064753871666" class="icon-icon-0" data-fill-palette-color="accent" id="icon-0"><g fill="#000000" data-fill-palette-color="accent"><path fill-rule="evenodd" clip-rule="evenodd" fill="#000000" d="M231.4 177c-0.4-0.3-0.8-0.6-1.2-0.9-0.5-0.3-1-0.6-1.6-0.9-1.2-0.7-2.6-1.5-4.2-2.1-3.2-1.5-7.4-2.8-12.4-3.6-5-0.8-10.8-0.9-17-0.1-3.1 0.4-6.3 1.2-9.6 2.2-0.8 0.3-1.6 0.6-2.5 0.9-0.8 0.4-1.6 0.8-2.5 1.2-0.8 0.4-1.6 1-2.4 1.4-0.8 0.5-1.6 1.2-2.4 1.9-2.7 2.6-4.7 5.3-6.8 8-2.1 2.7-4.2 5.4-6.5 7.7-1.1 1.1-2.3 2.1-3.2 2.5-0.1-0.2-0.3-0.5-0.5-0.8-0.1-0.2-0.3-0.6-0.4-0.9l-0.6-1.2c-0.8-1.9-1.9-3.8-3-5.5-2.3-3.5-5.2-6.7-8.6-9.5-1.8-1.4-3.7-2.7-5.9-3.8-2.2-1.1-4.7-2-7.8-2.3-1.6-0.1-3.3-0.1-5.1 0.4-1.8 0.5-3.6 1.4-5 2.7-0.7 0.6-1.3 1.3-1.8 1.9l-0.9 1.1-1.8 2.2c-2.3 2.9-4.6 5.7-6.9 7.9-0.3 0.3-0.6 0.6-0.9 0.8-0.1-0.1-0.1-0.2-0.2-0.3l-0.4-0.4c-0.5-0.5-1-1-1.5-1.5l-0.8-0.7c-0.3-0.2-0.5-0.4-0.8-0.6l-1.6-1.1c-1.1-0.7-2.3-1.3-3.4-1.9-4.8-2.1-9.9-2.6-14.1-2.4-4.3 0.2-8.2 0.9-11.8 1.8-7.1 1.7-13.2 3.9-18.7 5.8-5.5 1.9-10.5 3.4-14.9 4.3-4.4 1-8.3 1.3-11.6 1.2-0.8 0-1.6-0.1-2.3-0.2l41.8-21c2.5 0 4.6-2.1 4.6-4.6l-0.2-0.2L177.7 62.9l-4.6-4.6 9.6-9.7c2-2 2-5.3 0-7.3l-10.9-11c-2-2-5.3-2-7.3 0l-9.6 9.7-5.3-5.3-4.1-4.3 0 0-4.7-4.9L80.4 86.1l2.1 2.2 10.8-5.6 47.9-48 3.9 4.1L46.9 139.3l-0.4-0.4c-2.5 0-4.6 2.1-4.6 4.6L19 189.7c0 0.5 0.1 1 0.2 1.4l-0.2 0.3c0 0 0.2 0.2 0.6 0.5 0.6 1.2 1.8 2 3.1 2.3 1.5 0.9 3.6 2.1 6.3 2.9 3.6 1.2 8.3 2 13.5 1.9 5.2 0 11.1-0.7 17.1-1.8 6-1 12.4-2.5 18.7-3.4 6.3-1 12.6-1.2 16.5 0.5 0.5 0.3 1 0.4 1.4 0.7 0.4 0.3 1 0.6 1.2 0.9 0.1 0.1 0.3 0.3 0.5 0.4l0.1 0.1c0 0 0.1 0.2 0.2 0.2l0.5 0.5 0.9 1 0.1 0.1 0.1 0.1c-0.5-0.7-0.1-0.1-0.2-0.2l0.5 0.6 0.5 0.6 0.6 0.6 0.7 0.6c0.3 0.2 0.6 0.4 0.8 0.6 0.5 0.4 1.2 0.7 1.9 1 1.4 0.6 3.1 0.8 4.5 0.7 2.9-0.2 4.8-1.2 6.2-2 2.8-1.7 4.3-3.4 5.8-5.1 2.9-3.3 5-6.6 7.1-9.8l1.5-2.4 0.8-1.2c0.1-0.2 0.1-0.2 0.1-0.2 0-0.1 0-0.1 0.1-0.1 0.1-0.1 0.4-0.1 0.8-0.1 0.9 0 2.2 0.3 3.6 0.9 1.3 0.6 2.7 1.4 4.1 2.3 2.6 1.9 5 4.2 7 6.9 1 1.3 1.8 2.6 2.6 4l0.6 1.2c0.3 0.5 0.5 1 0.9 1.6 0.4 0.5 0.7 1 1.2 1.6 0.4 0.5 1 1.1 1.6 1.6 0.7 0.5 1.5 1.1 2.6 1.4 0.5 0.2 1 0.3 1.6 0.4 0.6 0.1 1.1 0.1 1.7 0.1 2.2-0.1 3.8-0.9 4.9-1.6 2.3-1.5 3.7-3 5-4.5 2.5-3 4.5-6 6.4-8.8 1.9-2.8 3.7-5.6 5.5-7.8 1.6-1.8 4.3-3.4 7-4.5 2.7-1.1 5.5-2.1 8.3-2.6 5.5-1.2 10.9-1.5 15.5-1.2 1.2 0 2.3 0.2 3.4 0.4 1.1 0.2 2.1 0.3 3.1 0.5 1 0.2 1.9 0.4 2.9 0.6 0.9 0.2 1.7 0.5 2.5 0.8 1.6 0.5 3 1.1 4.1 1.6 0.6 0.3 1.2 0.5 1.7 0.7 0.5 0.3 0.9 0.5 1.3 0.8 1.6 0.9 2.4 1.4 2.4 1.4l0.8-1.1C233.7 178.6 232.9 178 231.4 177zM107.9 189.6c-0.2 0.1-0.2 0 0.2-0.1C108 189.5 107.9 189.5 107.9 189.6zM158.5 195.4c0 0 0.1 0 0.1 0C158.4 195.5 158.3 195.4 158.5 195.4z" data-fill-palette-color="accent"></path></g></svg></g></svg></g></svg></g></svg></g><defs></defs></svg><rect width="395.52" height="118.85150200969949" fill="none" stroke="none" visibility="hidden"></rect></g></svg></g></svg>